<svg width="20" height="21" viewBox="0 0 20 21" fill="none" xmlns="http://www.w3.org/2000/svg">
<g clip-path="url(#clip0_4532_10848)">
<path d="M1.89844 5.1C1.89844 4.11 2.70844 3.3 3.69844 3.3H16.2984C16.7758 3.3 17.2337 3.48964 17.5712 3.82721C17.9088 4.16477 18.0984 4.62261 18.0984 5.1V17.7C18.0984 18.1774 17.9088 18.6352 17.5712 18.9728C17.2337 19.3104 16.7758 19.5 16.2984 19.5H3.69844C3.22105 19.5 2.76321 19.3104 2.42565 18.9728C2.08808 18.6352 1.89844 18.1774 1.89844 17.7V5.1ZM3.69844 6.9V17.7H16.2984V6.9H3.69844ZM5.49844 1.5H7.29844V3.3H5.49844V1.5ZM12.6984 1.5H14.4984V3.3H12.6984V1.5ZM5.49844 9.6H7.29844V11.4H5.49844V9.6ZM5.49844 13.2H7.29844V15H5.49844V13.2ZM9.09844 9.6H10.8984V11.4H9.09844V9.6ZM9.09844 13.2H10.8984V15H9.09844V13.2ZM12.6984 9.6H14.4984V11.4H12.6984V9.6ZM12.6984 13.2H14.4984V15H12.6984V13.2Z" fill="#C3C5CA"/>
</g>
<defs>
<clipPath id="clip0_4532_10848">
<rect width="18" height="18" fill="white" transform="translate(1 1.5)"/>
</clipPath>
</defs>
</svg>
