<svg width="40" height="27" viewBox="0 0 40 27" fill="none" xmlns="http://www.w3.org/2000/svg">
<path d="M39.1008 1.61833C39.1008 1.1687 38.7305 0.804199 38.2738 0.804199H0.826988C0.370255 0.804199 0 1.1687 0 1.61833V16.5626C0 17.0122 0.370255 17.3767 0.826988 17.3767H2.28292L1.41908 18.8436C1.19001 19.2326 1.32464 19.7308 1.71977 19.9563L2.33302 20.3062C2.72816 20.5318 3.23417 20.3992 3.46324 20.0102L5.01408 17.3767H20.142L21.7168 20.0179C21.948 20.4056 22.4547 20.5355 22.8486 20.3079L23.4599 19.9546C23.8538 19.727 23.9857 19.2282 23.7545 18.8404L22.8818 17.3767H34.6137V19.3171C34.6137 19.7668 34.984 20.1313 35.4407 20.1313H36.1495C36.6063 20.1313 36.9765 19.7668 36.9765 19.3171V17.3767H38.2738C38.7305 17.3767 39.1008 17.0122 39.1008 16.5626V1.61833Z" fill="#AEAFB5"/>
<path fill-rule="evenodd" clip-rule="evenodd" d="M7.99169 24.138C8.898 24.138 9.63272 23.4147 9.63272 22.5225C9.63272 21.6303 8.898 20.907 7.99169 20.907C7.08538 20.907 6.35066 21.6303 6.35066 22.5225C6.35066 23.4147 7.08538 24.138 7.99169 24.138ZM7.99169 26.4641C10.203 26.4641 11.9955 24.6994 11.9955 22.5225C11.9955 20.3456 10.203 18.5809 7.99169 18.5809C5.78042 18.5809 3.98784 20.3456 3.98784 22.5225C3.98784 24.6994 5.78042 26.4641 7.99169 26.4641Z" fill="#AEAFB5"/>
<path fill-rule="evenodd" clip-rule="evenodd" d="M17.1246 24.138C18.0309 24.138 18.7656 23.4147 18.7656 22.5225C18.7656 21.6303 18.0309 20.907 17.1246 20.907C16.2182 20.907 15.4835 21.6303 15.4835 22.5225C15.4835 23.4147 16.2182 24.138 17.1246 24.138ZM17.1246 26.4641C19.3358 26.4641 21.1284 24.6994 21.1284 22.5225C21.1284 20.3456 19.3358 18.5809 17.1246 18.5809C14.9133 18.5809 13.1207 20.3456 13.1207 22.5225C13.1207 24.6994 14.9133 26.4641 17.1246 26.4641Z" fill="#AEAFB5"/>
</svg>
