<svg width="34" height="34" viewBox="0 0 34 34" fill="none" xmlns="http://www.w3.org/2000/svg">
<path d="M33.307 4.98818V2.61288H23.791V19.24H26.17V12.1141H32.1175V9.73879H26.17V4.98818H33.307Z" fill="#AEAFB5"/>
<path d="M19.032 4.98742C20.3459 4.98742 21.411 3.92396 21.411 2.61212C21.411 1.30028 20.3459 0.236816 19.032 0.236816C17.7182 0.236816 16.653 1.30028 16.653 2.61212C16.653 3.92396 17.7182 4.98742 19.032 4.98742Z" fill="#AEAFB5"/>
<path d="M9.51663 21.8336V12.1139H7.13763V21.8336C6.34397 22.1138 5.67507 22.6651 5.24914 23.39C4.8232 24.115 4.66767 24.9669 4.81002 25.7953C4.95236 26.6237 5.38343 27.3752 6.02704 27.9169C6.67064 28.4587 7.48533 28.7558 8.32713 28.7558C9.16892 28.7558 9.98362 28.4587 10.6272 27.9169C11.2708 27.3752 11.7019 26.6237 11.8442 25.7953C11.9866 24.9669 11.8311 24.115 11.4051 23.39C10.9792 22.6651 10.3103 22.1138 9.51663 21.8336Z" fill="#AEAFB5"/>
<path d="M8.32754 33.491C6.68838 33.4929 5.08521 33.0112 3.71934 32.1063C2.35348 31.2015 1.28581 29.9139 0.650399 28.4053C0.0149921 26.8966 -0.159825 25.2342 0.147901 23.6266C0.455626 22.0191 1.23218 20.5382 2.38004 19.3699V6.17507C2.38004 4.60015 3.00665 3.08973 4.12202 1.97609C5.23739 0.862452 6.75016 0.236816 8.32754 0.236816C9.90492 0.236816 11.4177 0.862452 12.5331 1.97609C13.6484 3.08973 14.275 4.60015 14.275 6.17507V19.3699C15.4229 20.5382 16.1995 22.0191 16.5072 23.6266C16.8149 25.2342 16.6401 26.8966 16.0047 28.4053C15.3693 29.9139 14.3016 31.2015 12.9357 32.1063C11.5699 33.0112 9.9667 33.4929 8.32754 33.491ZM8.32754 2.61212C7.38141 2.61306 6.47429 2.98875 5.80527 3.65673C5.13625 4.3247 4.75998 5.23041 4.75904 6.17507V20.4067L4.36412 20.7618C3.46591 21.5634 2.83266 22.6184 2.54821 23.7872C2.26376 24.956 2.34151 26.1835 2.77117 27.3072C3.20083 28.431 3.96215 29.3979 4.95434 30.0801C5.94654 30.7623 7.12284 31.1276 8.32754 31.1276C9.53224 31.1276 10.7085 30.7623 11.7007 30.0801C12.6929 29.3979 13.4543 28.431 13.8839 27.3072C14.3136 26.1835 14.3913 24.956 14.1069 23.7872C13.8224 22.6184 13.1892 21.5634 12.291 20.7618L11.896 20.4067V6.17507C11.8951 5.23041 11.5188 4.3247 10.8498 3.65673C10.1808 2.98875 9.27368 2.61306 8.32754 2.61212Z" fill="#AEAFB5"/>
</svg>
