<svg width="14" height="15" viewBox="0 0 14 15" fill="none" xmlns="http://www.w3.org/2000/svg">
<path d="M0.505315 2.91872C0.351446 3.00871 0.223588 3.13908 0.134808 3.29648C0.046028 3.45389 -0.000490834 3.63269 5.23202e-06 3.81463V13.344C-0.000553616 13.5216 0.0436657 13.6962 0.128352 13.851C0.213039 14.0057 0.335303 14.1353 0.483227 14.2271C0.63115 14.3188 0.799685 14.3696 0.972401 14.3745C1.14512 14.3794 1.31612 14.3382 1.46875 14.255C1.48218 14.2476 1.49531 14.2399 1.50812 14.2313L4.13748 12.4635C4.1724 12.4401 4.20107 12.4081 4.22088 12.3704C4.24069 12.3327 4.25102 12.2906 4.25092 12.2477V0.770781C4.25105 0.723984 4.23873 0.678041 4.21531 0.637911C4.19188 0.597781 4.15823 0.564989 4.11799 0.543075C4.07775 0.521161 4.03245 0.510958 3.98698 0.513568C3.94151 0.516177 3.8976 0.5315 3.85998 0.557882L0.505315 2.91872ZM5.63623 0.541505C5.59853 0.516328 5.55493 0.502061 5.51001 0.500207C5.46509 0.498353 5.42051 0.508981 5.38097 0.530971C5.34144 0.552961 5.3084 0.585499 5.28535 0.625159C5.26229 0.66482 5.25008 0.710134 5.24998 0.75633V12.2381C5.24988 12.2809 5.2602 12.3231 5.28002 12.3608C5.29983 12.3985 5.3285 12.4305 5.36341 12.4539L8.3634 14.4583C8.40112 14.4836 8.44478 14.4979 8.48978 14.4998C8.53477 14.5017 8.57943 14.491 8.61902 14.469C8.65862 14.447 8.69169 14.4143 8.71474 14.3746C8.73778 14.3348 8.74995 14.2894 8.74996 14.2431V2.76875C8.75008 2.72584 8.73973 2.68357 8.71986 2.64582C8.69999 2.60807 8.67123 2.57604 8.63621 2.55265L5.63623 0.541505ZM13.5165 0.771423C13.3691 0.678744 13.2007 0.627366 13.028 0.622408C12.8553 0.61745 12.6843 0.659085 12.5321 0.743165C12.5187 0.750273 12.5056 0.758208 12.4931 0.766927L9.86339 2.53306C9.82847 2.55646 9.7998 2.58845 9.77999 2.62614C9.76018 2.66383 9.74985 2.70601 9.74995 2.74885V14.2274C9.74979 14.2743 9.76209 14.3203 9.78553 14.3604C9.80897 14.4006 9.84266 14.4334 9.88295 14.4554C9.92324 14.4773 9.9686 14.4875 10.0141 14.4848C10.0596 14.4822 10.1036 14.4668 10.1412 14.4403L13.4871 12.0814C13.6428 11.9921 13.7725 11.8617 13.8627 11.7036C13.9528 11.5455 14.0002 11.3655 13.9999 11.1823V1.67729C14.002 1.49632 13.9586 1.31786 13.8739 1.15917C13.7892 1.00048 13.6661 0.86693 13.5165 0.771423Z" fill="#AEAFB5"/>
</svg>
