<svg width="34" height="34" viewBox="0 0 34 34" fill="none" xmlns="http://www.w3.org/2000/svg">
<path d="M29.6056 18.0503L23.198 13.4742L29.6056 8.89697L32.5665 9.88394L33.31 7.65237L30.5855 6.74422V4.06328H28.2328V6.98655L22.351 11.1885V4.49501L25.3566 2.49165L24.0508 0.53418L21.1746 2.45166L18.2984 0.53418L16.9926 2.49165L19.9982 4.49501V11.1885L16.4691 8.66758V11.5591L19.1513 13.4742L16.4691 15.3893V18.2808L19.9982 15.7599V23.7121L24.0508 26.4142L25.3566 24.4568L22.351 22.4534V15.7599L28.2328 19.9619V22.8851H30.5855V20.2042L33.31 19.2949L32.5665 17.0633L29.6056 18.0503ZM11.7637 25.2379C11.7637 26.1739 11.3919 27.0715 10.73 27.7333C10.0682 28.3952 9.17054 28.767 8.23457 28.767C7.29859 28.767 6.40095 28.3952 5.73912 27.7333C5.07728 27.0715 4.70547 26.1739 4.70547 25.2379H11.7637Z" fill="#C5115E"/>
<path d="M8.23559 33.4724C6.61453 33.4743 5.02906 32.9971 3.67827 32.1009C2.32749 31.2046 1.27161 29.9293 0.643218 28.435C0.0148266 26.9407 -0.15806 25.294 0.146268 23.7018C0.450596 22.1095 1.21857 20.6427 2.35376 19.4854V6.41601C2.35376 4.85605 2.97345 3.35999 4.07651 2.25693C5.17956 1.15387 6.67563 0.53418 8.23559 0.53418C9.79555 0.53418 11.2916 1.15387 12.3947 2.25693C13.4977 3.35999 14.1174 4.85605 14.1174 6.41601V19.4854C15.2526 20.6427 16.0206 22.1095 16.3249 23.7018C16.6292 25.294 16.4564 26.9407 15.828 28.435C15.1996 29.9293 14.1437 31.2046 12.7929 32.1009C11.4421 32.9971 9.85665 33.4743 8.23559 33.4724ZM8.23559 2.88691C7.2999 2.88785 6.4028 3.25996 5.74117 3.92159C5.07954 4.58323 4.70742 5.48032 4.70649 6.41601V20.5124L4.31594 20.8641C3.42764 21.6581 2.80138 22.7031 2.52007 23.8608C2.23876 25.0185 2.31565 26.2343 2.74057 27.3474C3.16549 28.4604 3.9184 29.4182 4.89964 30.0939C5.88088 30.7696 7.04419 31.1314 8.23559 31.1314C9.42699 31.1314 10.5903 30.7696 11.5715 30.0939C12.5528 29.4182 13.3057 28.4604 13.7306 27.3474C14.1555 26.2343 14.2324 25.0185 13.9511 23.8608C13.6698 22.7031 13.0435 21.6581 12.1552 20.8641L11.7647 20.5124V6.41601C11.7638 5.48032 11.3916 4.58323 10.73 3.92159C10.0684 3.25996 9.17128 2.88785 8.23559 2.88691Z" fill="#C5115E"/>
</svg>
