<svg width="25" height="26" viewBox="0 0 25 26" fill="none" xmlns="http://www.w3.org/2000/svg">
<path d="M0 6.6861V19.3182C0 19.6902 0.210218 20.0304 0.543012 20.1968L11.9422 25.8963C12.2163 26.0334 12.5387 26.0346 12.8139 25.8997L24.4501 20.1949C24.7867 20.0299 25 19.6877 25 19.3129V6.68291C25 6.31028 24.7892 5.96973 24.4556 5.80361L13.009 0.103011C12.7347 -0.0336154 12.4123 -0.0343704 12.1373 0.100968L8.29003 1.99453L19.9411 8.03935V14.719L17.0432 16.2416V9.61104L5.24652 3.49249L0.548528 5.80476C0.212706 5.97005 0 6.31181 0 6.6861Z" fill="#C5115E"/>
</svg>
