<svg width="38" height="38" viewBox="0 0 38 38" fill="none" xmlns="http://www.w3.org/2000/svg">
<g filter="url(#filter0_d_4532_10987)">
<rect x="4" y="2" width="30" height="30" rx="7" fill="#FAFAFA"/>
<path fill-rule="evenodd" clip-rule="evenodd" d="M22.7406 9.34458C22.302 8.88514 21.591 8.88514 21.1524 9.34458C20.7139 9.80402 20.7139 10.5489 21.1524 11.0084L23.1658 13.1176H13.123C12.5028 13.1176 12 13.6444 12 14.2941C12 14.9439 12.5028 15.4706 13.123 15.4706H25.877C26.3312 15.4706 26.7407 15.184 26.9145 14.7443C27.0883 14.3047 26.9922 13.7987 26.6711 13.4622L22.7406 9.34458ZM13.123 17.5294C12.6688 17.5294 12.2593 17.8161 12.0855 18.2557C11.9117 18.6953 12.0078 19.2013 12.3289 19.5378L16.2594 23.6554C16.698 24.1149 17.409 24.1149 17.8476 23.6554C18.2861 23.196 18.2861 22.4511 17.8476 21.9916L15.8342 19.8824H25.877C26.4972 19.8824 27 19.3556 27 18.7059C27 18.0561 26.4972 17.5294 25.877 17.5294H13.123Z" fill="#3A50C6"/>
</g>
<defs>
<filter id="filter0_d_4532_10987" x="0" y="0" width="38" height="38" filterUnits="userSpaceOnUse" color-interpolation-filters="sRGB">
<feFlood flood-opacity="0" result="BackgroundImageFix"/>
<feColorMatrix in="SourceAlpha" type="matrix" values="0 0 0 0 0 0 0 0 0 0 0 0 0 0 0 0 0 0 127 0" result="hardAlpha"/>
<feOffset dy="2"/>
<feGaussianBlur stdDeviation="2"/>
<feComposite in2="hardAlpha" operator="out"/>
<feColorMatrix type="matrix" values="0 0 0 0 0.0638021 0 0 0 0 0.0713854 0 0 0 0 0.111198 0 0 0 0.12 0"/>
<feBlend mode="normal" in2="BackgroundImageFix" result="effect1_dropShadow_4532_10987"/>
<feBlend mode="normal" in="SourceGraphic" in2="effect1_dropShadow_4532_10987" result="shape"/>
</filter>
</defs>
</svg>
