<svg width="40" height="27" viewBox="0 0 40 27" fill="none" xmlns="http://www.w3.org/2000/svg">
<path fill-rule="evenodd" clip-rule="evenodd" d="M38.273 0.974121C38.7298 0.974121 39.1 1.33861 39.1 1.78823V16.7322C39.1 17.1818 38.7298 17.5463 38.273 17.5463H36.9758V19.4867C36.9758 19.9363 36.6055 20.3008 36.1488 20.3008H35.44C34.9832 20.3008 34.613 19.9363 34.613 19.4867V17.5463H22.8813L23.754 19.01C23.9852 19.3977 23.8533 19.8966 23.4594 20.1242L22.8481 20.4774C22.4542 20.705 21.9475 20.5752 21.7163 20.1874L20.1416 17.5463H5.01398L3.46317 20.1798C3.23411 20.5687 2.7281 20.7013 2.33297 20.4758L1.71974 20.1258C1.32461 19.9003 1.18999 19.4021 1.41905 19.0132L2.28287 17.5463H0.826971C0.370247 17.5463 0 17.1818 0 16.7322V1.78823C0 1.33861 0.370248 0.974121 0.826971 0.974121H38.273ZM4.70659 3.84412C4.70659 3.48991 4.96716 3.20277 5.28859 3.20277H6.77636C7.09779 3.20277 7.35836 3.48991 7.35836 3.84412V14.0397C7.35836 14.3939 7.09779 14.681 6.77636 14.681H5.28859C4.96716 14.681 4.70659 14.3939 4.70659 14.0397V3.84412ZM11.4653 3.84412C11.4653 3.48991 11.7259 3.20277 12.0473 3.20277H13.5351C13.8565 3.20277 14.1171 3.48991 14.1171 3.84412V14.0397C14.1171 14.3939 13.8565 14.681 13.5351 14.681H12.0473C11.7259 14.681 11.4653 14.3939 11.4653 14.0397V3.84412ZM18.806 3.20277C18.4846 3.20277 18.224 3.48991 18.224 3.84412V14.0397C18.224 14.3939 18.4846 14.681 18.806 14.681H20.2938C20.6152 14.681 20.8758 14.3939 20.8758 14.0397V3.84412C20.8758 3.48991 20.6152 3.20277 20.2938 3.20277H18.806ZM24.983 3.84412C24.983 3.48991 25.2436 3.20277 25.565 3.20277H27.0528C27.3742 3.20277 27.6348 3.48991 27.6348 3.84412V14.0397C27.6348 14.3939 27.3742 14.681 27.0528 14.681H25.565C25.2436 14.681 24.983 14.3939 24.983 14.0397V3.84412ZM32.3237 3.20277C32.0023 3.20277 31.7417 3.48991 31.7417 3.84412V14.0397C31.7417 14.3939 32.0023 14.681 32.3237 14.681H33.8115C34.1329 14.681 34.3935 14.3939 34.3935 14.0397V3.84412C34.3935 3.48991 34.1329 3.20277 33.8115 3.20277H32.3237Z" fill="#AEAFB5"/>
<path fill-rule="evenodd" clip-rule="evenodd" d="M7.99153 24.3075C8.89782 24.3075 9.63252 23.5842 9.63252 22.692C9.63252 21.7998 8.89782 21.0765 7.99153 21.0765C7.08523 21.0765 6.35053 21.7998 6.35053 22.692C6.35053 23.5842 7.08523 24.3075 7.99153 24.3075ZM7.99153 26.6335C10.2027 26.6335 11.9953 24.8688 11.9953 22.692C11.9953 20.5151 10.2027 18.7505 7.99153 18.7505C5.78031 18.7505 3.98776 20.5151 3.98776 22.692C3.98776 24.8688 5.78031 26.6335 7.99153 26.6335Z" fill="#AEAFB5"/>
<path fill-rule="evenodd" clip-rule="evenodd" d="M17.1242 24.3075C18.0305 24.3075 18.7652 23.5842 18.7652 22.692C18.7652 21.7998 18.0305 21.0765 17.1242 21.0765C16.2179 21.0765 15.4832 21.7998 15.4832 22.692C15.4832 23.5842 16.2179 24.3075 17.1242 24.3075ZM17.1242 26.6335C19.3354 26.6335 21.128 24.8688 21.128 22.692C21.128 20.5151 19.3354 18.7505 17.1242 18.7505C14.913 18.7505 13.1204 20.5151 13.1204 22.692C13.1204 24.8688 14.913 26.6335 17.1242 26.6335Z" fill="#AEAFB5"/>
</svg>
