<svg width="20" height="20" viewBox="0 0 20 20" fill="none" xmlns="http://www.w3.org/2000/svg">
<path d="M11.7008 15.9998C11.7008 16.9387 10.9397 17.6998 10.0008 17.6998C9.0619 17.6998 8.30078 16.9387 8.30078 15.9998C8.30078 15.0609 9.0619 14.2998 10.0008 14.2998C10.9397 14.2998 11.7008 15.0609 11.7008 15.9998Z" fill="#AEAFB5"/>
<path d="M11.7008 9.9998C11.7008 10.9387 10.9397 11.6998 10.0008 11.6998C9.0619 11.6998 8.30078 10.9387 8.30078 9.9998C8.30078 9.06092 9.0619 8.2998 10.0008 8.2998C10.9397 8.2998 11.7008 9.06092 11.7008 9.9998Z" fill="#AEAFB5"/>
<path d="M11.7008 3.9998C11.7008 4.93869 10.9397 5.6998 10.0008 5.6998C9.0619 5.6998 8.30078 4.93869 8.30078 3.9998C8.30078 3.06092 9.0619 2.2998 10.0008 2.2998C10.9397 2.2998 11.7008 3.06092 11.7008 3.9998Z" fill="#AEAFB5"/>
</svg>
