<svg width="44" height="44" viewBox="0 0 44 44" fill="none" xmlns="http://www.w3.org/2000/svg">
<g clip-path="url(#clip0_4922_1552)">
<g opacity="0.2">
<path fill-rule="evenodd" clip-rule="evenodd" d="M11.7097 16.7895C11.7097 15.8012 12.5184 15 13.5161 15H27.0645C27.2308 15 27.3656 15.1335 27.3656 15.2982V18.8772C27.3656 19.8655 28.1744 20.6667 29.172 20.6667H33.3871C35.3825 20.6667 37 22.269 37 24.2456V27.2281C37 28.2164 36.1912 29.0175 35.1935 29.0175H33.9892C33.9892 30.6647 32.6413 32 30.9785 32C29.3157 32 27.9677 30.6647 27.9677 29.0175H20.1398C20.1398 30.6647 18.7919 32 17.129 32C15.4662 32 14.1183 30.6647 14.1183 29.0175H13.5161C12.5184 29.0175 11.7097 28.2164 11.7097 27.2281V26.6316C11.7097 26.4669 11.5749 26.3333 11.4086 26.3333H9.90323C9.40442 26.3333 9 25.9327 9 25.4386C9 24.9445 9.40442 24.5439 9.90323 24.5439H17.129C17.6278 24.5439 18.0323 24.1432 18.0323 23.6491C18.0323 23.155 17.6278 22.7544 17.129 22.7544H9.90323C9.40442 22.7544 9 22.3538 9 21.8596C9 21.3655 9.40442 20.9649 9.90323 20.9649H14.7204C15.2192 20.9649 15.6237 20.5643 15.6237 20.0702C15.6237 19.5761 15.2192 19.1754 14.7204 19.1754H10.8065C10.3076 19.1754 9.90323 18.7748 9.90323 18.2807C9.90323 17.7866 10.3076 17.386 10.8065 17.386H11.4086C11.5749 17.386 11.7097 17.2524 11.7097 17.0877V16.7895ZM17.129 30.5088C17.9604 30.5088 18.6344 29.8411 18.6344 29.0175C18.6344 28.1939 17.9604 27.5263 17.129 27.5263C16.2976 27.5263 15.6237 28.1939 15.6237 29.0175C15.6237 29.8411 16.2976 30.5088 17.129 30.5088ZM30.9785 30.5088C31.8099 30.5088 32.4839 29.8411 32.4839 29.0175C32.4839 28.1939 31.8099 27.5263 30.9785 27.5263C30.1471 27.5263 29.4731 28.1939 29.4731 29.0175C29.4731 29.8411 30.1471 30.5088 30.9785 30.5088Z" fill="white"/>
<path d="M29.2055 15C29.0208 15 28.871 15.1484 28.871 15.3314V17.9825C28.871 18.6413 29.4101 19.1754 30.0753 19.1754H32.7515C32.9362 19.1754 33.086 19.027 33.086 18.8441C33.086 16.5563 31.5149 15 29.2055 15Z" fill="white"/>
</g>
</g>
<defs>
<clipPath id="clip0_4922_1552">
<rect width="44" height="44" rx="12" fill="white"/>
</clipPath>
</defs>
</svg>
