<svg width="44" height="44" viewBox="0 0 44 44" fill="none" xmlns="http://www.w3.org/2000/svg">
<g clip-path="url(#clip0_4922_1591)">
<g opacity="0.2">
<path d="M15.625 33.5H14.125C13.8266 33.5 13.5405 33.3815 13.3295 33.1705C13.1185 32.9595 13 32.6734 13 32.375V25.625C13 25.3266 13.1185 25.0405 13.3295 24.8295C13.5405 24.6185 13.8266 24.5 14.125 24.5H15.625C15.9234 24.5 16.2095 24.6185 16.4205 24.8295C16.6315 25.0405 16.75 25.3266 16.75 25.625V32.375C16.75 32.6734 16.6315 32.9595 16.4205 33.1705C16.2095 33.3815 15.9234 33.5 15.625 33.5ZM26.125 33.5H24.625C24.3266 33.5 24.0405 33.3815 23.8295 33.1705C23.6185 32.9595 23.5 32.6734 23.5 32.375V21.125C23.5 20.8266 23.6185 20.5405 23.8295 20.3295C24.0405 20.1185 24.3266 20 24.625 20H26.125C26.4234 20 26.7095 20.1185 26.9205 20.3295C27.1315 20.5405 27.25 20.8266 27.25 21.125V32.375C27.25 32.6734 27.1315 32.9595 26.9205 33.1705C26.7095 33.3815 26.4234 33.5 26.125 33.5ZM31.375 33.5H29.875C29.5766 33.5 29.2905 33.3815 29.0795 33.1705C28.8685 32.9595 28.75 32.6734 28.75 32.375V15.875C28.75 15.5766 28.8685 15.2905 29.0795 15.0795C29.2905 14.8685 29.5766 14.75 29.875 14.75H31.375C31.6734 14.75 31.9595 14.8685 32.1705 15.0795C32.3815 15.2905 32.5 15.5766 32.5 15.875V32.375C32.5 32.6734 32.3815 32.9595 32.1705 33.1705C31.9595 33.3815 31.6734 33.5 31.375 33.5ZM20.875 33.5H19.375C19.0766 33.5 18.7905 33.3815 18.5795 33.1705C18.3685 32.9595 18.25 32.6734 18.25 32.375V12.125C18.25 11.8266 18.3685 11.5405 18.5795 11.3295C18.7905 11.1185 19.0766 11 19.375 11H20.875C21.1734 11 21.4595 11.1185 21.6705 11.3295C21.8815 11.5405 22 11.8266 22 12.125V32.375C22 32.6734 21.8815 32.9595 21.6705 33.1705C21.4595 33.3815 21.1734 33.5 20.875 33.5Z" fill="white"/>
</g>
</g>
<defs>
<clipPath id="clip0_4922_1591">
<rect width="44" height="44" rx="12" fill="white"/>
</clipPath>
</defs>
</svg>
