<svg width="44" height="44" viewBox="0 0 44 44" fill="none" xmlns="http://www.w3.org/2000/svg">
<g clip-path="url(#clip0_4922_1606)">
<g opacity="0.2">
<path d="M31.1613 13.3769H17.4941L27.8185 9.18266C29.411 8.53565 31.1613 9.68717 31.1613 11.382V13.3769Z" fill="white"/>
<path d="M14.2258 14.9633C12.4444 14.9633 11 16.3838 11 18.1361V30.8272C11 32.5795 12.4444 34 14.2258 34H31.1613C32.9427 34 34.3871 32.5795 34.3871 30.8272V30.034H28.7419C27.4059 30.034 26.3226 28.9687 26.3226 27.6544V21.3089C26.3226 19.9947 27.4059 18.9293 28.7419 18.9293H34.3871V18.1361C34.3871 16.3838 32.9427 14.9633 31.1613 14.9633H14.2258Z" fill="white"/>
<path fill-rule="evenodd" clip-rule="evenodd" d="M29.5484 20.5157C28.6577 20.5157 27.9355 21.2259 27.9355 22.1021V26.8613C27.9355 27.7374 28.6577 28.4476 29.5484 28.4476H34.3871C35.2778 28.4476 36 27.7374 36 26.8613V22.1021C36 21.2259 35.2778 20.5157 34.3871 20.5157H29.5484ZM30.3548 22.8953C29.9095 22.8953 29.5484 23.2504 29.5484 23.6885V25.2749C29.5484 25.7129 29.9095 26.0681 30.3548 26.0681C30.8002 26.0681 31.1613 25.7129 31.1613 25.2749V23.6885C31.1613 23.2504 30.8002 22.8953 30.3548 22.8953Z" fill="white"/>
</g>
</g>
<defs>
<clipPath id="clip0_4922_1606">
<rect width="44" height="44" rx="12" fill="white"/>
</clipPath>
</defs>
</svg>
