<svg width="44" height="44" viewBox="0 0 44 44" fill="none" xmlns="http://www.w3.org/2000/svg">
<g clip-path="url(#clip0_4922_1581)">
<g opacity="0.2">
<path d="M31.7955 19.8571H24.6364C23.9854 19.8571 23.3611 19.5975 22.9007 19.1354C22.4404 18.6732 22.1818 18.0464 22.1818 17.3929V10.2054C22.1818 10.1509 22.1603 10.0987 22.1219 10.0601C22.0835 10.0216 22.0315 10 21.9773 10H17.2727C16.4047 10 15.5723 10.3462 14.9586 10.9624C14.3448 11.5786 14 12.4143 14 13.2857V29.7143C14 30.5857 14.3448 31.4214 14.9586 32.0376C15.5723 32.6538 16.4047 33 17.2727 33H28.7273C29.5953 33 30.4277 32.6538 31.0414 32.0376C31.6552 31.4214 32 30.5857 32 29.7143V20.0625C32 20.008 31.9785 19.9558 31.9401 19.9173C31.9017 19.8788 31.8497 19.8571 31.7955 19.8571Z" fill="white"/>
<path d="M31.3465 18.0392L23.9926 10.6561C23.9783 10.6418 23.9601 10.6321 23.9403 10.6282C23.9205 10.6243 23.9 10.6263 23.8814 10.634C23.8627 10.6418 23.8468 10.6549 23.8356 10.6717C23.8243 10.6885 23.8183 10.7083 23.8182 10.7285V17.3929C23.8182 17.6107 23.9044 17.8196 24.0578 17.9737C24.2113 18.1277 24.4194 18.2143 24.6364 18.2143H31.2744C31.2945 18.2142 31.3142 18.2081 31.331 18.1968C31.3477 18.1856 31.3608 18.1696 31.3685 18.1508C31.3762 18.1321 31.3782 18.1116 31.3743 18.0917C31.3704 18.0718 31.3607 18.0536 31.3465 18.0392Z" fill="white"/>
</g>
</g>
<defs>
<clipPath id="clip0_4922_1581">
<rect width="44" height="44" rx="12" fill="white"/>
</clipPath>
</defs>
</svg>
