<svg width="44" height="44" viewBox="0 0 44 44" fill="none" xmlns="http://www.w3.org/2000/svg">
<g clip-path="url(#clip0_4922_1576)">
<g opacity="0.2">
<path d="M18.2 20.8824C19.473 20.8824 20.6939 20.3618 21.5941 19.4351C22.4943 18.5085 23 17.2517 23 15.9412C23 14.6307 22.4943 13.3739 21.5941 12.4472C20.6939 11.5206 19.473 11 18.2 11C16.927 11 15.7061 11.5206 14.8059 12.4472C13.9057 13.3739 13.4 14.6307 13.4 15.9412C13.4 17.2517 13.9057 18.5085 14.8059 19.4351C15.7061 20.3618 16.927 20.8824 18.2 20.8824ZM29 20.8824C29.9548 20.8824 30.8705 20.4919 31.5456 19.7969C32.2207 19.1019 32.6 18.1593 32.6 17.1765C32.6 16.1936 32.2207 15.251 31.5456 14.556C30.8705 13.861 29.9548 13.4706 29 13.4706C28.0452 13.4706 27.1295 13.861 26.4544 14.556C25.7793 15.251 25.4 16.1936 25.4 17.1765C25.4 18.1593 25.7793 19.1019 26.4544 19.7969C27.1295 20.4919 28.0452 20.8824 29 20.8824ZM13.7 23.3529C12.9839 23.3529 12.2972 23.6458 11.7908 24.167C11.2845 24.6883 11 25.3952 11 26.1324V26.4412C11 26.4412 11 32 18.2 32C25.4 32 25.4 26.4412 25.4 26.4412V26.1324C25.4 25.3952 25.1155 24.6883 24.6092 24.167C24.1028 23.6458 23.4161 23.3529 22.7 23.3529H13.7ZM29 30.1471C27.5948 30.1471 26.5184 29.9235 25.694 29.5813C26.1738 28.7477 26.4749 27.8182 26.5772 26.855C26.5889 26.738 26.5965 26.6205 26.6 26.5029V26.1324C26.6015 25.0975 26.2136 24.1022 25.5176 23.3554C25.5584 23.3537 25.5992 23.3528 25.64 23.3529H32.36C33.0602 23.3529 33.7317 23.6393 34.2268 24.1489C34.7219 24.6586 35 25.3498 35 26.0706C35 26.0706 35 30.1471 29 30.1471Z" fill="white"/>
</g>
</g>
<defs>
<clipPath id="clip0_4922_1576">
<rect width="44" height="44" rx="12" fill="white"/>
</clipPath>
</defs>
</svg>
