<svg width="44" height="44" viewBox="0 0 44 44" fill="none" xmlns="http://www.w3.org/2000/svg">
<g clip-path="url(#clip0_4922_1586)">
<g opacity="0.2">
<path fill-rule="evenodd" clip-rule="evenodd" d="M12.8055 12.8368C12.2897 13.3727 12 14.0994 12 14.8571V29.1429C12 29.9006 12.2897 30.6273 12.8055 31.1632C13.3212 31.699 14.0207 32 14.75 32H31.25C30.5207 32 29.8212 31.699 29.3055 31.1632C28.7897 30.6273 28.5 29.9006 28.5 29.1429V14.8571C28.5 14.0994 28.2103 13.3727 27.6945 12.8368C27.1788 12.301 26.4793 12 25.75 12H14.75C14.0207 12 13.3212 12.301 12.8055 12.8368ZM14.75 17.7143C14.75 16.9253 15.3656 16.2857 16.125 16.2857H24.375C25.1344 16.2857 25.75 16.9253 25.75 17.7143C25.75 18.5033 25.1344 19.1429 24.375 19.1429H16.125C15.3656 19.1429 14.75 18.5033 14.75 17.7143ZM14.75 22C14.75 21.211 15.3656 20.5714 16.125 20.5714H21.625C22.3844 20.5714 23 21.211 23 22C23 22.789 22.3844 23.4286 21.625 23.4286H16.125C15.3656 23.4286 14.75 22.789 14.75 22Z" fill="white"/>
<path d="M29.875 17.7143H31.25C31.9793 17.7143 32.6788 18.0153 33.1945 18.5511C33.7103 19.0869 34 19.8137 34 20.5714V28.4286C34 28.9969 33.7827 29.5419 33.3959 29.9438C33.0091 30.3457 32.4845 30.5714 31.9375 30.5714C31.3905 30.5714 30.8659 30.3457 30.4791 29.9438C30.0923 29.5419 29.875 28.9969 29.875 28.4286V17.7143Z" fill="white"/>
</g>
</g>
<defs>
<clipPath id="clip0_4922_1586">
<rect width="44" height="44" rx="12" fill="white"/>
</clipPath>
</defs>
</svg>
