<svg width="20" height="21" viewBox="0 0 20 21" fill="none" xmlns="http://www.w3.org/2000/svg">
<path d="M3.33073 18.1668C2.8724 18.1668 2.4799 18.0035 2.15323 17.6768C1.82656 17.3502 1.66351 16.9579 1.66406 16.5002V6.50016C1.66406 6.04183 1.8274 5.64933 2.15406 5.32266C2.48073 4.996 2.87295 4.83294 3.33073 4.8335H16.6641C17.1224 4.8335 17.5149 4.99683 17.8416 5.3235C18.1682 5.65016 18.3313 6.04239 18.3307 6.50016V16.5002C18.3307 16.9585 18.1674 17.351 17.8407 17.6777C17.5141 18.0043 17.1218 18.1674 16.6641 18.1668H3.33073ZM9.9974 12.3335L16.6641 8.16683V6.50016L9.9974 10.6668L3.33073 6.50016V8.16683L9.9974 12.3335Z" fill="#C3C5CA"/>
</svg>
